# xmcd CD database file
#
# Track frame offsets:
#	150
#	12413
#	23056
#	35897
#	46958
#	59396
#	71204
#	84700
#	98705
#	110489
#	124576
#	137677
#	150791
#	164732
#	176992
#	189558
#	202060
#	216072
#
# Disc length: 3029 seconds
#
# Revision: 3
# Processed by: cddbd v1.5.1PL2 Copyright (c) Steve Scherf et al.
# Submitted via: CDex 1.51
#
DISCID=060bd312
DTITLE=Various Artist - The Great Country Collection - 3 of 8
DYEAR=2002
DGENRE=Country
TTITLE0=Sons of the Pioneers - Tumbling Tumbleweeds (15-Mar-1946)
TTITLE1=Wilf Carter - No Letter Today (2-Jul-1944)
TTITLE2=Tex Ritter - I'm Wastin' My Tears On You (23-Nov-1943)
TTITLE3=Roy Acuff - Not A Word From Home (4-Jun-1942)
TTITLE4=Gene Autry - Deep In The Heart Of Texas (24-Feb-1942)
TTITLE5=Bill Monroe and His Bluegrass Boys - Rocky Road Blues (2-Jun-1945)
TTITLE6=The Carter Family - Coal Miner's Blues (8-Jun-1938)
TTITLE7=Jimmie Rodgers - My Old Pal (12-Jun-1928)
TTITLE8=Bob Wills and His Texas Playboys - New San Antonio Rose (16-Apr-1940)
TTITLE9=Hank Snow - The Blue Velvet Band (8-Nov-1937)
TTITLE10=Ernest Tubb - Walking The Floor Over You (26-Apr-1941)
TTITLE11=Spade Cooley - Shame On You (4-Dec-1944)
TTITLE12=Tex Owens - Cattle Call (28-Aug-1934)
TTITLE13=Ted Daffan and His Texans - Born To Lose (20-Feb-1942)
TTITLE14=Roy Acuff and His Smoky Mountain Boys - Wreck On The Highway (28-May-1942)
TTITLE15=Bill Monroe and His Bluegrass Boys - Mule Skinner Blues (7-Oct-1942)
TTITLE16=Jimmie Rodgers - My Little Lady (12-Jun-1928)
TTITLE17=Gene Autry - You Are My Sunshine (18-Jun-1941)
EXTD=YEAR: 2002
EXTT0=
EXTT1=
EXTT2=
EXTT3=
EXTT4=
EXTT5=
EXTT6=
EXTT7=
EXTT8=
EXTT9=
EXTT10=
EXTT11=
EXTT12=
EXTT13=
EXTT14=
EXTT15=
EXTT16=
EXTT17=
PLAYORDER=
